<?xml version="1.0" encoding="UTF-8"?>
<svg id="_레이어_1" data-name="레이어_1" xmlns="http://www.w3.org/2000/svg" version="1.1" viewBox="0 0 158.2 30.1">
  <!-- Generator: Adobe Illustrator 29.4.0, SVG Export Plug-In . SVG Version: 2.1.0 Build 152)  -->
  <defs>
    <style>
      .st0 {
        fill: #0054a7;
      }

      .st1 {
        fill: #e83743;
      }
    </style>
  </defs>
  <g>
    <path class="st0" d="M75.1,22.8c1.8-.1,3.7-.3,5.4-.5l.4,3.6c-3.7.5-8.3.8-11.6.8h-3.5l-.2-3.7h4.1c.4,0,.9,0,1.4,0v-2.8c-2.8-.6-4.8-2.8-4.8-6.6v-.3c0-4.7,3-6.8,6.7-6.8s6.7,2.1,6.7,6.8v.3c0,3.7-1.9,5.8-4.6,6.5v2.7ZM70.3,13.5c0,2.2,1.3,3.2,2.7,3.2s2.7-.9,2.7-3.2v-.3c0-2.2-1.3-3.2-2.7-3.2s-2.7.9-2.7,3.2v.3ZM89,14.3v3.7h-3v12.1h-4V5.5h4v8.8h3Z"/>
    <path class="st0" d="M90.2,18.6v-3.8c0-6.1,3-8.4,6.8-8.4s6.7,2.3,6.7,8.4v3.8c0,6.1-3,8.4-6.7,8.4s-6.8-2.3-6.8-8.4ZM99.7,18.6v-3.8c0-3.7-1.3-4.7-2.7-4.7s-2.8,1-2.8,4.7v3.8c0,3.7,1.3,4.7,2.8,4.7s2.7-1,2.7-4.7ZM106.7,30.1V5.5h4v24.6h-4Z"/>
    <path class="st0" d="M122.7,12.9v-6.1h3.9v19.5h-12.7V6.8h3.9v6.1h4.8ZM117.9,22.6h4.8v-6h-4.8v6ZM130.2,5.5h4v24.6h-4V5.5Z"/>
    <path class="st0" d="M147.4,13.8c-.5,2.9-2.6,4.4-5.2,4.4s-5.4-2-5.4-6.1v-.3c0-4.1,2.3-6.1,5.4-6.1s4.7,1.5,5.2,4.5h1.8v-4.5h3.6v13h-3.6v-4.9h-1.9ZM140.5,12.1c0,1.7.8,2.6,1.7,2.6s1.7-.9,1.7-2.6v-.2c0-1.7-.8-2.6-1.7-2.6s-1.7.9-1.7,2.6v.2ZM141.1,30.1v-10.2h17v10.2h-17ZM145.1,23.4v3h9v-3h-9ZM154.4,5.5h3.8v13.2h-3.8V5.5Z"/>
  </g>
  <g>
    <path class="st0" d="M48.2,5.3v24.8h-5.9V.2c0-.2.4-.3.5-.2l5.4,5.2Z"/>
    <path class="st1" d="M0,9.3V0h5.9v14.3c0,.2-.4.3-.5.1L0,9.3Z"/>
    <path class="st1" d="M14.4,24.8V0h-5.9v29.8c0,.2.4.3.5.2l5.4-5.2Z"/>
    <rect class="st1" x="16.9" width="5.9" height="30.1"/>
    <g>
      <path class="st1" d="M25.9,0c-.2-.2-.5,0-.5.1v14.1c0,.2.4.3.5.1l5.4-5.2v-4L25.9,0Z"/>
      <path class="st1" d="M25.9,15.6c-.2-.2-.5,0-.5.1v14.1c0,.2.4.3.5.1l5.4-5.2v-4l-5.4-5.2Z"/>
    </g>
    <path class="st0" d="M39.7,5.3v24.8h-5.9V.2c0-.2.4-.3.5-.2l5.4,5.2Z"/>
    <path class="st0" d="M56.6,5.3v24.8h-5.9V.2c0-.2.4-.3.5-.2l5.4,5.2Z"/>
  </g>
</svg>